<svg width="125" height="42" viewBox="0 0 125 42" fill="none" xmlns="http://www.w3.org/2000/svg">
<g clip-path="url(#clip0_1244_6287)">
<path d="M0.0390625 41.3562H9.56204V27.381H23.4686V20.1586H9.56204V13.8378H24.8496V6.5332H0.0390625V41.3562Z" fill="white"/>
<path d="M37.8333 16.1582H28.4375V41.3593H37.8333V16.1582Z" fill="white"/>
<path d="M37.8333 6.5332H28.4375V13.8378H37.8333V6.5332Z" fill="white"/>
<path d="M52.5755 6.5332H43.1797V41.3596H52.5755V6.5332Z" fill="white"/>
<path d="M81.7596 16.1582H72.3639V30.0956C72.3639 33.8285 71.4806 35.0659 69.2652 35.0659C67.1455 35.0659 66.4959 33.4583 66.4959 31.1685V16.1582H57.1172V32.7282C57.1172 38.7028 59.9963 41.9866 65.4173 41.9866C68.6054 41.9866 70.7733 41.0851 72.3979 38.6994C72.429 39.3712 72.4771 40.7526 72.5903 41.3593H81.8077C81.7596 38.9565 81.7596 35.5424 81.7596 33.3075V16.1582Z" fill="white"/>
<path d="M116.81 15.5488C112.612 15.5488 110.523 17.3141 109.063 19.0177C108.228 17.4067 106.401 15.5488 102.618 15.5488C98.9871 15.5488 96.8775 17.1187 95.507 18.8463C95.4589 17.9517 95.3146 16.7348 95.2184 16.159H86.2109C86.259 18.3047 86.259 20.7419 86.259 23.0557V41.3601H95.524V26.8639C95.524 23.5939 96.3898 22.4181 98.4682 22.4181C100.571 22.4181 101.049 23.9709 101.049 25.863V41.3567H110.283V26.6412C110.283 23.7481 111.073 22.3873 113.178 22.3873C115.188 22.3873 115.807 23.916 115.807 25.7774V41.3567H124.993V24.965C124.997 18.507 121.513 15.5488 116.81 15.5488Z" fill="white"/>
<path d="M117.68 0.0136719V2.68393H86.2188V4.64462H117.68V7.31488H124.998V0.0136719H117.68Z" fill="#F39200"/>
</g>
<defs>
<clipPath id="clip0_1244_6287">
<rect width="125" height="42" fill="white"/>
</clipPath>
</defs>
</svg>
